<?xml version="1.0" encoding="utf-8"?>
<!-- Svg Vector Icons : http://www.onlinewebfonts.com/icon -->
<!DOCTYPE svg PUBLIC "-//W3C//DTD SVG 1.1//EN" "http://www.w3.org/Graphics/SVG/1.1/DTD/svg11.dtd">
<svg version="1.1" xmlns="http://www.w3.org/2000/svg" xmlns:xlink="http://www.w3.org/1999/xlink" x="0px" y="0px" viewBox="0 0 1000 1000" enable-background="new 0 0 1000 1000" xml:space="preserve">
<metadata> Svg Vector Icons : http://www.onlinewebfonts.com/icon </metadata>
<g><g transform="translate(0.000000,511.000000) scale(0.100000,-0.100000)"><path d="M2923.4,4676.1c-25.4-25.4-246-437.4-490.1-919.7c-462.8-913.8-458.9-902.1-384.7-1005.6c21.5-29.3,962.6-519.4,2538.3-1321.9l2507.1-1275l1300.4,384.6l1302.4,386.6l52.7,95.7c62.5,111.3,70.3,220.6,19.5,277.3c-17.6,21.5-722.5,390.5-1566,820.1c-843.5,429.6-2335.3,1191.1-3317.4,1690.9c-1278.9,652.2-1804.2,909.9-1849.1,909.9C2997.6,4719.1,2952.7,4701.5,2923.4,4676.1z"/><path d="M1730.4,2374c-54.7-125-54.7-177.7,3.9-248c19.5-21.5,632.6-343.7,1362.9-716.6c730.3-371,1335.6-683.4,1343.4-691.2c9.8-9.8-255.8-408.1-619-925.5l-638.5-907.9l-169.9-7.8c-140.6-5.8-191.4-15.6-298.8-66.4c-220.6-105.4-365.1-269.5-437.4-496c-19.5-58.6-37.1-111.3-41-115.2c-11.7-13.7-1031-191.3-1046.6-183.5c-9.8,3.9-15.6,345.6-15.6,759.6c0,804.5,0,806.4-101.5,900.1C1047-301,982.6-262,929.8-236.6c-89.8,39-126.9,42.9-458.9,44.9H109.8l-5.8-2153.7L100-4499.1l394.4,5.8c392.5,5.9,396.4,5.9,488.1,60.5c50.8,29.3,115.2,85.9,142.5,126.9l48.8,72.2v743.9v743.9l654.1,113.2l654.1,115.2l54.7-50.8c396.4-365.1,1089.5-185.5,1296.5,335.9c60.5,152.3,60.5,433.5,0,583.8l-43,107.4l501.8,712.7c277.3,392.5,578,822,669.7,952.9c91.8,132.8,169.9,240.2,177.7,240.2c5.9,0,620.9-312.4,1368.8-693.2c747.8-380.7,1380.5-693.2,1405.9-693.2c109.3,2,134.7,39.1,454.9,665.8c171.8,337.8,306.6,615.1,300.7,619c-7.8,3.9-355.4-105.4-773.2-240.2l-757.6-246l-2665.3,1357c-1464.4,747.8-2669.2,1359-2677,1359C1790.9,2493.1,1759.7,2440.4,1730.4,2374z"/><path d="M8898.3-74.5c-160.1-316.3-289-579.9-283.1-583.8c37.1-35.2,689.3-343.7,701-330c7.8,7.8,142.5,265.5,298.7,572.1L9900,138.3l-345.6,181.6C9365,419.5,9204.9,499.5,9199,499.5C9193.2,499.5,9058.4,241.8,8898.3-74.5z"/></g></g>
</svg>